# Nanosheet FET — 1 unit = 1 nm
mtllib materials.mtl
g substrate
usemtl silicon
v -48.0000 -26.0000 -42.0000
v 48.0000 -26.0000 -42.0000
v 48.0000 -8.0000 -42.0000
v -48.0000 -8.0000 -42.0000
v -48.0000 -26.0000 42.0000
v 48.0000 -26.0000 42.0000
v 48.0000 -8.0000 42.0000
v -48.0000 -8.0000 42.0000
f 1 2 3 4
f 5 8 7 6
f 1 5 6 2
f 2 6 7 3
f 3 7 8 4
f 4 8 5 1
g pts
usemtl pts
v -48.0000 -8.0000 -15.0000
v 48.0000 -8.0000 -15.0000
v 48.0000 0.0000 -15.0000
v -48.0000 0.0000 -15.0000
v -48.0000 -8.0000 15.0000
v 48.0000 -8.0000 15.0000
v 48.0000 0.0000 15.0000
v -48.0000 0.0000 15.0000
f 9 10 11 12
f 13 16 15 14
f 9 13 14 10
f 10 14 15 11
f 11 15 16 12
f 12 16 13 9
g sti
usemtl sio2
v -48.0000 -8.0000 15.0000
v 48.0000 -8.0000 15.0000
v 48.0000 0.0000 15.0000
v -48.0000 0.0000 15.0000
v -48.0000 -8.0000 42.0000
v 48.0000 -8.0000 42.0000
v 48.0000 0.0000 42.0000
v -48.0000 0.0000 42.0000
f 17 18 19 20
f 21 24 23 22
f 17 21 22 18
f 18 22 23 19
f 19 23 24 20
f 20 24 21 17
v -48.0000 -8.0000 -42.0000
v 48.0000 -8.0000 -42.0000
v 48.0000 0.0000 -42.0000
v -48.0000 0.0000 -42.0000
v -48.0000 -8.0000 -15.0000
v 48.0000 -8.0000 -15.0000
v 48.0000 0.0000 -15.0000
v -48.0000 0.0000 -15.0000
f 25 26 27 28
f 29 32 31 30
f 25 29 30 26
f 26 30 31 27
f 27 31 32 28
f 28 32 29 25
g bdi
usemtl si3n4
v -36.5000 0.0000 -15.0000
v 36.5000 0.0000 -15.0000
v 36.5000 10.0000 -15.0000
v -36.5000 10.0000 -15.0000
v -36.5000 0.0000 15.0000
v 36.5000 0.0000 15.0000
v 36.5000 10.0000 15.0000
v -36.5000 10.0000 15.0000
f 33 34 35 36
f 37 40 39 38
f 33 37 38 34
f 34 38 39 35
f 35 39 40 36
f 36 40 37 33
g sheet1
usemtl silicon
v -14.5000 22.0000 -15.0000
v 14.5000 22.0000 -15.0000
v 14.5000 27.0000 -15.0000
v -14.5000 27.0000 -15.0000
v -14.5000 22.0000 15.0000
v 14.5000 22.0000 15.0000
v 14.5000 27.0000 15.0000
v -14.5000 27.0000 15.0000
f 41 42 43 44
f 45 48 47 46
f 41 45 46 42
f 42 46 47 43
f 43 47 48 44
f 44 48 45 41
g sheet2
usemtl silicon
v -14.5000 43.0000 -15.0000
v 14.5000 43.0000 -15.0000
v 14.5000 48.0000 -15.0000
v -14.5000 48.0000 -15.0000
v -14.5000 43.0000 15.0000
v 14.5000 43.0000 15.0000
v 14.5000 48.0000 15.0000
v -14.5000 48.0000 15.0000
f 49 50 51 52
f 53 56 55 54
f 49 53 54 50
f 50 54 55 51
f 51 55 56 52
f 52 56 53 49
g sheet3
usemtl silicon
v -14.5000 64.0000 -15.0000
v 14.5000 64.0000 -15.0000
v 14.5000 69.0000 -15.0000
v -14.5000 69.0000 -15.0000
v -14.5000 64.0000 15.0000
v 14.5000 64.0000 15.0000
v 14.5000 69.0000 15.0000
v -14.5000 69.0000 15.0000
f 57 58 59 60
f 61 64 63 62
f 57 61 62 58
f 58 62 63 59
f 59 63 64 60
f 60 64 61 57
g il1
usemtl sio2
v -7.5000 27.0000 -16.0000
v 7.5000 27.0000 -16.0000
v 7.5000 28.0000 -16.0000
v -7.5000 28.0000 -16.0000
v -7.5000 27.0000 16.0000
v 7.5000 27.0000 16.0000
v 7.5000 28.0000 16.0000
v -7.5000 28.0000 16.0000
f 65 66 67 68
f 69 72 71 70
f 65 69 70 66
f 66 70 71 67
f 67 71 72 68
f 68 72 69 65
v -7.5000 21.0000 -16.0000
v 7.5000 21.0000 -16.0000
v 7.5000 22.0000 -16.0000
v -7.5000 22.0000 -16.0000
v -7.5000 21.0000 16.0000
v 7.5000 21.0000 16.0000
v 7.5000 22.0000 16.0000
v -7.5000 22.0000 16.0000
f 73 74 75 76
f 77 80 79 78
f 73 77 78 74
f 74 78 79 75
f 75 79 80 76
f 76 80 77 73
v -7.5000 22.0000 15.0000
v 7.5000 22.0000 15.0000
v 7.5000 27.0000 15.0000
v -7.5000 27.0000 15.0000
v -7.5000 22.0000 16.0000
v 7.5000 22.0000 16.0000
v 7.5000 27.0000 16.0000
v -7.5000 27.0000 16.0000
f 81 82 83 84
f 85 88 87 86
f 81 85 86 82
f 82 86 87 83
f 83 87 88 84
f 84 88 85 81
v -7.5000 22.0000 -16.0000
v 7.5000 22.0000 -16.0000
v 7.5000 27.0000 -16.0000
v -7.5000 27.0000 -16.0000
v -7.5000 22.0000 -15.0000
v 7.5000 22.0000 -15.0000
v 7.5000 27.0000 -15.0000
v -7.5000 27.0000 -15.0000
f 89 90 91 92
f 93 96 95 94
f 89 93 94 90
f 90 94 95 91
f 91 95 96 92
f 92 96 93 89
g il2
usemtl sio2
v -7.5000 48.0000 -16.0000
v 7.5000 48.0000 -16.0000
v 7.5000 49.0000 -16.0000
v -7.5000 49.0000 -16.0000
v -7.5000 48.0000 16.0000
v 7.5000 48.0000 16.0000
v 7.5000 49.0000 16.0000
v -7.5000 49.0000 16.0000
f 97 98 99 100
f 101 104 103 102
f 97 101 102 98
f 98 102 103 99
f 99 103 104 100
f 100 104 101 97
v -7.5000 42.0000 -16.0000
v 7.5000 42.0000 -16.0000
v 7.5000 43.0000 -16.0000
v -7.5000 43.0000 -16.0000
v -7.5000 42.0000 16.0000
v 7.5000 42.0000 16.0000
v 7.5000 43.0000 16.0000
v -7.5000 43.0000 16.0000
f 105 106 107 108
f 109 112 111 110
f 105 109 110 106
f 106 110 111 107
f 107 111 112 108
f 108 112 109 105
v -7.5000 43.0000 15.0000
v 7.5000 43.0000 15.0000
v 7.5000 48.0000 15.0000
v -7.5000 48.0000 15.0000
v -7.5000 43.0000 16.0000
v 7.5000 43.0000 16.0000
v 7.5000 48.0000 16.0000
v -7.5000 48.0000 16.0000
f 113 114 115 116
f 117 120 119 118
f 113 117 118 114
f 114 118 119 115
f 115 119 120 116
f 116 120 117 113
v -7.5000 43.0000 -16.0000
v 7.5000 43.0000 -16.0000
v 7.5000 48.0000 -16.0000
v -7.5000 48.0000 -16.0000
v -7.5000 43.0000 -15.0000
v 7.5000 43.0000 -15.0000
v 7.5000 48.0000 -15.0000
v -7.5000 48.0000 -15.0000
f 121 122 123 124
f 125 128 127 126
f 121 125 126 122
f 122 126 127 123
f 123 127 128 124
f 124 128 125 121
g il3
usemtl sio2
v -7.5000 69.0000 -16.0000
v 7.5000 69.0000 -16.0000
v 7.5000 70.0000 -16.0000
v -7.5000 70.0000 -16.0000
v -7.5000 69.0000 16.0000
v 7.5000 69.0000 16.0000
v 7.5000 70.0000 16.0000
v -7.5000 70.0000 16.0000
f 129 130 131 132
f 133 136 135 134
f 129 133 134 130
f 130 134 135 131
f 131 135 136 132
f 132 136 133 129
v -7.5000 63.0000 -16.0000
v 7.5000 63.0000 -16.0000
v 7.5000 64.0000 -16.0000
v -7.5000 64.0000 -16.0000
v -7.5000 63.0000 16.0000
v 7.5000 63.0000 16.0000
v 7.5000 64.0000 16.0000
v -7.5000 64.0000 16.0000
f 137 138 139 140
f 141 144 143 142
f 137 141 142 138
f 138 142 143 139
f 139 143 144 140
f 140 144 141 137
v -7.5000 64.0000 15.0000
v 7.5000 64.0000 15.0000
v 7.5000 69.0000 15.0000
v -7.5000 69.0000 15.0000
v -7.5000 64.0000 16.0000
v 7.5000 64.0000 16.0000
v 7.5000 69.0000 16.0000
v -7.5000 69.0000 16.0000
f 145 146 147 148
f 149 152 151 150
f 145 149 150 146
f 146 150 151 147
f 147 151 152 148
f 148 152 149 145
v -7.5000 64.0000 -16.0000
v 7.5000 64.0000 -16.0000
v 7.5000 69.0000 -16.0000
v -7.5000 69.0000 -16.0000
v -7.5000 64.0000 -15.0000
v 7.5000 64.0000 -15.0000
v 7.5000 69.0000 -15.0000
v -7.5000 69.0000 -15.0000
f 153 154 155 156
f 157 160 159 158
f 153 157 158 154
f 154 158 159 155
f 155 159 160 156
f 156 160 157 153
g hk1
usemtl highk
v -7.5000 28.0000 -18.0000
v 7.5000 28.0000 -18.0000
v 7.5000 30.0000 -18.0000
v -7.5000 30.0000 -18.0000
v -7.5000 28.0000 18.0000
v 7.5000 28.0000 18.0000
v 7.5000 30.0000 18.0000
v -7.5000 30.0000 18.0000
f 161 162 163 164
f 165 168 167 166
f 161 165 166 162
f 162 166 167 163
f 163 167 168 164
f 164 168 165 161
v -7.5000 19.0000 -18.0000
v 7.5000 19.0000 -18.0000
v 7.5000 21.0000 -18.0000
v -7.5000 21.0000 -18.0000
v -7.5000 19.0000 18.0000
v 7.5000 19.0000 18.0000
v 7.5000 21.0000 18.0000
v -7.5000 21.0000 18.0000
f 169 170 171 172
f 173 176 175 174
f 169 173 174 170
f 170 174 175 171
f 171 175 176 172
f 172 176 173 169
v -7.5000 21.0000 16.0000
v 7.5000 21.0000 16.0000
v 7.5000 28.0000 16.0000
v -7.5000 28.0000 16.0000
v -7.5000 21.0000 18.0000
v 7.5000 21.0000 18.0000
v 7.5000 28.0000 18.0000
v -7.5000 28.0000 18.0000
f 177 178 179 180
f 181 184 183 182
f 177 181 182 178
f 178 182 183 179
f 179 183 184 180
f 180 184 181 177
v -7.5000 21.0000 -18.0000
v 7.5000 21.0000 -18.0000
v 7.5000 28.0000 -18.0000
v -7.5000 28.0000 -18.0000
v -7.5000 21.0000 -16.0000
v 7.5000 21.0000 -16.0000
v 7.5000 28.0000 -16.0000
v -7.5000 28.0000 -16.0000
f 185 186 187 188
f 189 192 191 190
f 185 189 190 186
f 186 190 191 187
f 187 191 192 188
f 188 192 189 185
g hk2
usemtl highk
v -7.5000 49.0000 -18.0000
v 7.5000 49.0000 -18.0000
v 7.5000 51.0000 -18.0000
v -7.5000 51.0000 -18.0000
v -7.5000 49.0000 18.0000
v 7.5000 49.0000 18.0000
v 7.5000 51.0000 18.0000
v -7.5000 51.0000 18.0000
f 193 194 195 196
f 197 200 199 198
f 193 197 198 194
f 194 198 199 195
f 195 199 200 196
f 196 200 197 193
v -7.5000 40.0000 -18.0000
v 7.5000 40.0000 -18.0000
v 7.5000 42.0000 -18.0000
v -7.5000 42.0000 -18.0000
v -7.5000 40.0000 18.0000
v 7.5000 40.0000 18.0000
v 7.5000 42.0000 18.0000
v -7.5000 42.0000 18.0000
f 201 202 203 204
f 205 208 207 206
f 201 205 206 202
f 202 206 207 203
f 203 207 208 204
f 204 208 205 201
v -7.5000 42.0000 16.0000
v 7.5000 42.0000 16.0000
v 7.5000 49.0000 16.0000
v -7.5000 49.0000 16.0000
v -7.5000 42.0000 18.0000
v 7.5000 42.0000 18.0000
v 7.5000 49.0000 18.0000
v -7.5000 49.0000 18.0000
f 209 210 211 212
f 213 216 215 214
f 209 213 214 210
f 210 214 215 211
f 211 215 216 212
f 212 216 213 209
v -7.5000 42.0000 -18.0000
v 7.5000 42.0000 -18.0000
v 7.5000 49.0000 -18.0000
v -7.5000 49.0000 -18.0000
v -7.5000 42.0000 -16.0000
v 7.5000 42.0000 -16.0000
v 7.5000 49.0000 -16.0000
v -7.5000 49.0000 -16.0000
f 217 218 219 220
f 221 224 223 222
f 217 221 222 218
f 218 222 223 219
f 219 223 224 220
f 220 224 221 217
g hk3
usemtl highk
v -7.5000 70.0000 -18.0000
v 7.5000 70.0000 -18.0000
v 7.5000 72.0000 -18.0000
v -7.5000 72.0000 -18.0000
v -7.5000 70.0000 18.0000
v 7.5000 70.0000 18.0000
v 7.5000 72.0000 18.0000
v -7.5000 72.0000 18.0000
f 225 226 227 228
f 229 232 231 230
f 225 229 230 226
f 226 230 231 227
f 227 231 232 228
f 228 232 229 225
v -7.5000 61.0000 -18.0000
v 7.5000 61.0000 -18.0000
v 7.5000 63.0000 -18.0000
v -7.5000 63.0000 -18.0000
v -7.5000 61.0000 18.0000
v 7.5000 61.0000 18.0000
v 7.5000 63.0000 18.0000
v -7.5000 63.0000 18.0000
f 233 234 235 236
f 237 240 239 238
f 233 237 238 234
f 234 238 239 235
f 235 239 240 236
f 236 240 237 233
v -7.5000 63.0000 16.0000
v 7.5000 63.0000 16.0000
v 7.5000 70.0000 16.0000
v -7.5000 70.0000 16.0000
v -7.5000 63.0000 18.0000
v 7.5000 63.0000 18.0000
v 7.5000 70.0000 18.0000
v -7.5000 70.0000 18.0000
f 241 242 243 244
f 245 248 247 246
f 241 245 246 242
f 242 246 247 243
f 243 247 248 244
f 244 248 245 241
v -7.5000 63.0000 -18.0000
v 7.5000 63.0000 -18.0000
v 7.5000 70.0000 -18.0000
v -7.5000 70.0000 -18.0000
v -7.5000 63.0000 -16.0000
v 7.5000 63.0000 -16.0000
v 7.5000 70.0000 -16.0000
v -7.5000 70.0000 -16.0000
f 249 250 251 252
f 253 256 255 254
f 249 253 254 250
f 250 254 255 251
f 251 255 256 252
f 252 256 253 249
g tin1
usemtl nwf
v -7.5000 30.0000 -21.0000
v 7.5000 30.0000 -21.0000
v 7.5000 33.0000 -21.0000
v -7.5000 33.0000 -21.0000
v -7.5000 30.0000 21.0000
v 7.5000 30.0000 21.0000
v 7.5000 33.0000 21.0000
v -7.5000 33.0000 21.0000
f 257 258 259 260
f 261 264 263 262
f 257 261 262 258
f 258 262 263 259
f 259 263 264 260
f 260 264 261 257
v -7.5000 16.0000 -21.0000
v 7.5000 16.0000 -21.0000
v 7.5000 19.0000 -21.0000
v -7.5000 19.0000 -21.0000
v -7.5000 16.0000 21.0000
v 7.5000 16.0000 21.0000
v 7.5000 19.0000 21.0000
v -7.5000 19.0000 21.0000
f 265 266 267 268
f 269 272 271 270
f 265 269 270 266
f 266 270 271 267
f 267 271 272 268
f 268 272 269 265
v -7.5000 19.0000 18.0000
v 7.5000 19.0000 18.0000
v 7.5000 30.0000 18.0000
v -7.5000 30.0000 18.0000
v -7.5000 19.0000 21.0000
v 7.5000 19.0000 21.0000
v 7.5000 30.0000 21.0000
v -7.5000 30.0000 21.0000
f 273 274 275 276
f 277 280 279 278
f 273 277 278 274
f 274 278 279 275
f 275 279 280 276
f 276 280 277 273
v -7.5000 19.0000 -21.0000
v 7.5000 19.0000 -21.0000
v 7.5000 30.0000 -21.0000
v -7.5000 30.0000 -21.0000
v -7.5000 19.0000 -18.0000
v 7.5000 19.0000 -18.0000
v 7.5000 30.0000 -18.0000
v -7.5000 30.0000 -18.0000
f 281 282 283 284
f 285 288 287 286
f 281 285 286 282
f 282 286 287 283
f 283 287 288 284
f 284 288 285 281
g tin2
usemtl nwf
v -7.5000 51.0000 -21.0000
v 7.5000 51.0000 -21.0000
v 7.5000 54.0000 -21.0000
v -7.5000 54.0000 -21.0000
v -7.5000 51.0000 21.0000
v 7.5000 51.0000 21.0000
v 7.5000 54.0000 21.0000
v -7.5000 54.0000 21.0000
f 289 290 291 292
f 293 296 295 294
f 289 293 294 290
f 290 294 295 291
f 291 295 296 292
f 292 296 293 289
v -7.5000 37.0000 -21.0000
v 7.5000 37.0000 -21.0000
v 7.5000 40.0000 -21.0000
v -7.5000 40.0000 -21.0000
v -7.5000 37.0000 21.0000
v 7.5000 37.0000 21.0000
v 7.5000 40.0000 21.0000
v -7.5000 40.0000 21.0000
f 297 298 299 300
f 301 304 303 302
f 297 301 302 298
f 298 302 303 299
f 299 303 304 300
f 300 304 301 297
v -7.5000 40.0000 18.0000
v 7.5000 40.0000 18.0000
v 7.5000 51.0000 18.0000
v -7.5000 51.0000 18.0000
v -7.5000 40.0000 21.0000
v 7.5000 40.0000 21.0000
v 7.5000 51.0000 21.0000
v -7.5000 51.0000 21.0000
f 305 306 307 308
f 309 312 311 310
f 305 309 310 306
f 306 310 311 307
f 307 311 312 308
f 308 312 309 305
v -7.5000 40.0000 -21.0000
v 7.5000 40.0000 -21.0000
v 7.5000 51.0000 -21.0000
v -7.5000 51.0000 -21.0000
v -7.5000 40.0000 -18.0000
v 7.5000 40.0000 -18.0000
v 7.5000 51.0000 -18.0000
v -7.5000 51.0000 -18.0000
f 313 314 315 316
f 317 320 319 318
f 313 317 318 314
f 314 318 319 315
f 315 319 320 316
f 316 320 317 313
g tin3
usemtl nwf
v -7.5000 72.0000 -21.0000
v 7.5000 72.0000 -21.0000
v 7.5000 75.0000 -21.0000
v -7.5000 75.0000 -21.0000
v -7.5000 72.0000 21.0000
v 7.5000 72.0000 21.0000
v 7.5000 75.0000 21.0000
v -7.5000 75.0000 21.0000
f 321 322 323 324
f 325 328 327 326
f 321 325 326 322
f 322 326 327 323
f 323 327 328 324
f 324 328 325 321
v -7.5000 58.0000 -21.0000
v 7.5000 58.0000 -21.0000
v 7.5000 61.0000 -21.0000
v -7.5000 61.0000 -21.0000
v -7.5000 58.0000 21.0000
v 7.5000 58.0000 21.0000
v 7.5000 61.0000 21.0000
v -7.5000 61.0000 21.0000
f 329 330 331 332
f 333 336 335 334
f 329 333 334 330
f 330 334 335 331
f 331 335 336 332
f 332 336 333 329
v -7.5000 61.0000 18.0000
v 7.5000 61.0000 18.0000
v 7.5000 72.0000 18.0000
v -7.5000 72.0000 18.0000
v -7.5000 61.0000 21.0000
v 7.5000 61.0000 21.0000
v 7.5000 72.0000 21.0000
v -7.5000 72.0000 21.0000
f 337 338 339 340
f 341 344 343 342
f 337 341 342 338
f 338 342 343 339
f 339 343 344 340
f 340 344 341 337
v -7.5000 61.0000 -21.0000
v 7.5000 61.0000 -21.0000
v 7.5000 72.0000 -21.0000
v -7.5000 72.0000 -21.0000
v -7.5000 61.0000 -18.0000
v 7.5000 61.0000 -18.0000
v 7.5000 72.0000 -18.0000
v -7.5000 72.0000 -18.0000
f 345 346 347 348
f 349 352 351 350
f 345 349 350 346
f 346 350 351 347
f 347 351 352 348
f 348 352 349 345
g mo
usemtl mo
v -7.5000 10.0000 21.0000
v 7.5000 10.0000 21.0000
v 7.5000 84.0000 21.0000
v -7.5000 84.0000 21.0000
v -7.5000 10.0000 26.0000
v 7.5000 10.0000 26.0000
v 7.5000 84.0000 26.0000
v -7.5000 84.0000 26.0000
f 353 354 355 356
f 357 360 359 358
f 353 357 358 354
f 354 358 359 355
f 355 359 360 356
f 356 360 357 353
v -7.5000 10.0000 -26.0000
v 7.5000 10.0000 -26.0000
v 7.5000 84.0000 -26.0000
v -7.5000 84.0000 -26.0000
v -7.5000 10.0000 -21.0000
v 7.5000 10.0000 -21.0000
v 7.5000 84.0000 -21.0000
v -7.5000 84.0000 -21.0000
f 361 362 363 364
f 365 368 367 366
f 361 365 366 362
f 362 366 367 363
f 363 367 368 364
f 364 368 365 361
v -7.5000 0.0000 15.0000
v 7.5000 0.0000 15.0000
v 7.5000 10.0000 15.0000
v -7.5000 10.0000 15.0000
v -7.5000 0.0000 26.0000
v 7.5000 0.0000 26.0000
v 7.5000 10.0000 26.0000
v -7.5000 10.0000 26.0000
f 369 370 371 372
f 373 376 375 374
f 369 373 374 370
f 370 374 375 371
f 371 375 376 372
f 372 376 373 369
v -7.5000 0.0000 -26.0000
v 7.5000 0.0000 -26.0000
v 7.5000 10.0000 -26.0000
v -7.5000 10.0000 -26.0000
v -7.5000 0.0000 -15.0000
v 7.5000 0.0000 -15.0000
v 7.5000 10.0000 -15.0000
v -7.5000 10.0000 -15.0000
f 377 378 379 380
f 381 384 383 382
f 377 381 382 378
f 378 382 383 379
f 379 383 384 380
f 380 384 381 377
v -7.5000 10.0000 -21.0000
v 7.5000 10.0000 -21.0000
v 7.5000 16.0000 -21.0000
v -7.5000 16.0000 -21.0000
v -7.5000 10.0000 21.0000
v 7.5000 10.0000 21.0000
v 7.5000 16.0000 21.0000
v -7.5000 16.0000 21.0000
f 385 386 387 388
f 389 392 391 390
f 385 389 390 386
f 386 390 391 387
f 387 391 392 388
f 388 392 389 385
v -7.5000 33.0000 -21.0000
v 7.5000 33.0000 -21.0000
v 7.5000 37.0000 -21.0000
v -7.5000 37.0000 -21.0000
v -7.5000 33.0000 21.0000
v 7.5000 33.0000 21.0000
v 7.5000 37.0000 21.0000
v -7.5000 37.0000 21.0000
f 393 394 395 396
f 397 400 399 398
f 393 397 398 394
f 394 398 399 395
f 395 399 400 396
f 396 400 397 393
v -7.5000 54.0000 -21.0000
v 7.5000 54.0000 -21.0000
v 7.5000 58.0000 -21.0000
v -7.5000 58.0000 -21.0000
v -7.5000 54.0000 21.0000
v 7.5000 54.0000 21.0000
v 7.5000 58.0000 21.0000
v -7.5000 58.0000 21.0000
f 401 402 403 404
f 405 408 407 406
f 401 405 406 402
f 402 406 407 403
f 403 407 408 404
f 404 408 405 401
v -7.5000 75.0000 -21.0000
v 7.5000 75.0000 -21.0000
v 7.5000 84.0000 -21.0000
v -7.5000 84.0000 -21.0000
v -7.5000 75.0000 21.0000
v 7.5000 75.0000 21.0000
v 7.5000 84.0000 21.0000
v -7.5000 84.0000 21.0000
f 409 410 411 412
f 413 416 415 414
f 409 413 414 410
f 410 414 415 411
f 411 415 416 412
f 412 416 413 409
g gatecap
usemtl tin
v -7.5000 84.0000 -26.0000
v 7.5000 84.0000 -26.0000
v 7.5000 90.0000 -26.0000
v -7.5000 90.0000 -26.0000
v -7.5000 84.0000 26.0000
v 7.5000 84.0000 26.0000
v 7.5000 90.0000 26.0000
v -7.5000 90.0000 26.0000
f 417 418 419 420
f 421 424 423 422
f 417 421 422 418
f 418 422 423 419
f 419 423 424 420
f 420 424 421 417
g gatew
usemtl tungsten
v -7.5000 90.0000 -20.0000
v 7.5000 90.0000 -20.0000
v 7.5000 102.0000 -20.0000
v -7.5000 102.0000 -20.0000
v -7.5000 90.0000 20.0000
v 7.5000 90.0000 20.0000
v 7.5000 102.0000 20.0000
v -7.5000 102.0000 20.0000
f 425 426 427 428
f 429 432 431 430
f 425 429 430 426
f 426 430 431 427
f 427 431 432 428
f 428 432 429 425
g spacer_source
usemtl si3n4
v -14.5000 0.0000 15.0000
v -7.5000 0.0000 15.0000
v -7.5000 90.0000 15.0000
v -14.5000 90.0000 15.0000
v -14.5000 0.0000 26.0000
v -7.5000 0.0000 26.0000
v -7.5000 90.0000 26.0000
v -14.5000 90.0000 26.0000
f 433 434 435 436
f 437 440 439 438
f 433 437 438 434
f 434 438 439 435
f 435 439 440 436
f 436 440 437 433
v -14.5000 0.0000 -26.0000
v -7.5000 0.0000 -26.0000
v -7.5000 90.0000 -26.0000
v -14.5000 90.0000 -26.0000
v -14.5000 0.0000 -15.0000
v -7.5000 0.0000 -15.0000
v -7.5000 90.0000 -15.0000
v -14.5000 90.0000 -15.0000
f 441 442 443 444
f 445 448 447 446
f 441 445 446 442
f 442 446 447 443
f 443 447 448 444
f 444 448 445 441
v -14.5000 10.0000 -15.0000
v -7.5000 10.0000 -15.0000
v -7.5000 22.0000 -15.0000
v -14.5000 22.0000 -15.0000
v -14.5000 10.0000 15.0000
v -7.5000 10.0000 15.0000
v -7.5000 22.0000 15.0000
v -14.5000 22.0000 15.0000
f 449 450 451 452
f 453 456 455 454
f 449 453 454 450
f 450 454 455 451
f 451 455 456 452
f 452 456 453 449
v -14.5000 27.0000 -15.0000
v -7.5000 27.0000 -15.0000
v -7.5000 43.0000 -15.0000
v -14.5000 43.0000 -15.0000
v -14.5000 27.0000 15.0000
v -7.5000 27.0000 15.0000
v -7.5000 43.0000 15.0000
v -14.5000 43.0000 15.0000
f 457 458 459 460
f 461 464 463 462
f 457 461 462 458
f 458 462 463 459
f 459 463 464 460
f 460 464 461 457
v -14.5000 48.0000 -15.0000
v -7.5000 48.0000 -15.0000
v -7.5000 64.0000 -15.0000
v -14.5000 64.0000 -15.0000
v -14.5000 48.0000 15.0000
v -7.5000 48.0000 15.0000
v -7.5000 64.0000 15.0000
v -14.5000 64.0000 15.0000
f 465 466 467 468
f 469 472 471 470
f 465 469 470 466
f 466 470 471 467
f 467 471 472 468
f 468 472 469 465
v -14.5000 69.0000 -15.0000
v -7.5000 69.0000 -15.0000
v -7.5000 90.0000 -15.0000
v -14.5000 90.0000 -15.0000
v -14.5000 69.0000 15.0000
v -7.5000 69.0000 15.0000
v -7.5000 90.0000 15.0000
v -14.5000 90.0000 15.0000
f 473 474 475 476
f 477 480 479 478
f 473 477 478 474
f 474 478 479 475
f 475 479 480 476
f 476 480 477 473
g spacer_drain
usemtl si3n4
v 7.5000 0.0000 15.0000
v 14.5000 0.0000 15.0000
v 14.5000 90.0000 15.0000
v 7.5000 90.0000 15.0000
v 7.5000 0.0000 26.0000
v 14.5000 0.0000 26.0000
v 14.5000 90.0000 26.0000
v 7.5000 90.0000 26.0000
f 481 482 483 484
f 485 488 487 486
f 481 485 486 482
f 482 486 487 483
f 483 487 488 484
f 484 488 485 481
v 7.5000 0.0000 -26.0000
v 14.5000 0.0000 -26.0000
v 14.5000 90.0000 -26.0000
v 7.5000 90.0000 -26.0000
v 7.5000 0.0000 -15.0000
v 14.5000 0.0000 -15.0000
v 14.5000 90.0000 -15.0000
v 7.5000 90.0000 -15.0000
f 489 490 491 492
f 493 496 495 494
f 489 493 494 490
f 490 494 495 491
f 491 495 496 492
f 492 496 493 489
v 7.5000 10.0000 -15.0000
v 14.5000 10.0000 -15.0000
v 14.5000 22.0000 -15.0000
v 7.5000 22.0000 -15.0000
v 7.5000 10.0000 15.0000
v 14.5000 10.0000 15.0000
v 14.5000 22.0000 15.0000
v 7.5000 22.0000 15.0000
f 497 498 499 500
f 501 504 503 502
f 497 501 502 498
f 498 502 503 499
f 499 503 504 500
f 500 504 501 497
v 7.5000 27.0000 -15.0000
v 14.5000 27.0000 -15.0000
v 14.5000 43.0000 -15.0000
v 7.5000 43.0000 -15.0000
v 7.5000 27.0000 15.0000
v 14.5000 27.0000 15.0000
v 14.5000 43.0000 15.0000
v 7.5000 43.0000 15.0000
f 505 506 507 508
f 509 512 511 510
f 505 509 510 506
f 506 510 511 507
f 507 511 512 508
f 508 512 509 505
v 7.5000 48.0000 -15.0000
v 14.5000 48.0000 -15.0000
v 14.5000 64.0000 -15.0000
v 7.5000 64.0000 -15.0000
v 7.5000 48.0000 15.0000
v 14.5000 48.0000 15.0000
v 14.5000 64.0000 15.0000
v 7.5000 64.0000 15.0000
f 513 514 515 516
f 517 520 519 518
f 513 517 518 514
f 514 518 519 515
f 515 519 520 516
f 516 520 517 513
v 7.5000 69.0000 -15.0000
v 14.5000 69.0000 -15.0000
v 14.5000 90.0000 -15.0000
v 7.5000 90.0000 -15.0000
v 7.5000 69.0000 15.0000
v 14.5000 69.0000 15.0000
v 14.5000 90.0000 15.0000
v 7.5000 90.0000 15.0000
f 521 522 523 524
f 525 528 527 526
f 521 525 526 522
f 522 526 527 523
f 523 527 528 524
f 524 528 525 521
g epi_source
usemtl silicon
v -36.5000 10.0000 -15.0000
v -14.5000 10.0000 -15.0000
v -14.5000 72.0000 -15.0000
v -36.5000 72.0000 -15.0000
v -36.5000 10.0000 15.0000
v -14.5000 10.0000 15.0000
v -14.5000 72.0000 15.0000
v -36.5000 72.0000 15.0000
f 529 530 531 532
f 533 536 535 534
f 529 533 534 530
f 530 534 535 531
f 531 535 536 532
f 532 536 533 529
g nisi_source
usemtl tisi
v -36.5000 72.0000 -15.0000
v -14.5000 72.0000 -15.0000
v -14.5000 77.0000 -15.0000
v -36.5000 77.0000 -15.0000
v -36.5000 72.0000 15.0000
v -14.5000 72.0000 15.0000
v -14.5000 77.0000 15.0000
v -36.5000 77.0000 15.0000
f 537 538 539 540
f 541 544 543 542
f 537 541 542 538
f 538 542 543 539
f 539 543 544 540
f 540 544 541 537
g ni_source
usemtl cobalt
v -33.5000 77.0000 -12.0000
v -17.5000 77.0000 -12.0000
v -17.5000 92.0000 -12.0000
v -33.5000 92.0000 -12.0000
v -33.5000 77.0000 12.0000
v -17.5000 77.0000 12.0000
v -17.5000 92.0000 12.0000
v -33.5000 92.0000 12.0000
f 545 546 547 548
f 549 552 551 550
f 545 549 550 546
f 546 550 551 547
f 547 551 552 548
f 548 552 549 545
g w_source
usemtl tungsten
v -36.5000 92.0000 -15.0000
v -14.5000 92.0000 -15.0000
v -14.5000 102.0000 -15.0000
v -36.5000 102.0000 -15.0000
v -36.5000 92.0000 15.0000
v -14.5000 92.0000 15.0000
v -14.5000 102.0000 15.0000
v -36.5000 102.0000 15.0000
f 553 554 555 556
f 557 560 559 558
f 553 557 558 554
f 554 558 559 555
f 555 559 560 556
f 556 560 557 553
g epi_drain
usemtl silicon
v 14.5000 10.0000 -15.0000
v 36.5000 10.0000 -15.0000
v 36.5000 72.0000 -15.0000
v 14.5000 72.0000 -15.0000
v 14.5000 10.0000 15.0000
v 36.5000 10.0000 15.0000
v 36.5000 72.0000 15.0000
v 14.5000 72.0000 15.0000
f 561 562 563 564
f 565 568 567 566
f 561 565 566 562
f 562 566 567 563
f 563 567 568 564
f 564 568 565 561
g nisi_drain
usemtl tisi
v 14.5000 72.0000 -15.0000
v 36.5000 72.0000 -15.0000
v 36.5000 77.0000 -15.0000
v 14.5000 77.0000 -15.0000
v 14.5000 72.0000 15.0000
v 36.5000 72.0000 15.0000
v 36.5000 77.0000 15.0000
v 14.5000 77.0000 15.0000
f 569 570 571 572
f 573 576 575 574
f 569 573 574 570
f 570 574 575 571
f 571 575 576 572
f 572 576 573 569
g ni_drain
usemtl cobalt
v 17.5000 77.0000 -12.0000
v 33.5000 77.0000 -12.0000
v 33.5000 92.0000 -12.0000
v 17.5000 92.0000 -12.0000
v 17.5000 77.0000 12.0000
v 33.5000 77.0000 12.0000
v 33.5000 92.0000 12.0000
v 17.5000 92.0000 12.0000
f 577 578 579 580
f 581 584 583 582
f 577 581 582 578
f 578 582 583 579
f 579 583 584 580
f 580 584 581 577
g w_drain
usemtl tungsten
v 14.5000 92.0000 -15.0000
v 36.5000 92.0000 -15.0000
v 36.5000 102.0000 -15.0000
v 14.5000 102.0000 -15.0000
v 14.5000 92.0000 15.0000
v 36.5000 92.0000 15.0000
v 36.5000 102.0000 15.0000
v 14.5000 102.0000 15.0000
f 585 586 587 588
f 589 592 591 590
f 585 589 590 586
f 586 590 591 587
f 587 591 592 588
f 588 592 589 585
